<svg xmlns="http://www.w3.org/2000/svg" viewBox="0 0 100 110">
  <!-- Red flame main body -->
  <path d="
    M50,6
    C55,14 62,20 68,30
    C76,22 75,12 72,6
    C82,16 88,34 86,52
    C84,66 76,78 66,86
    C70,74 66,62 58,58
    C62,70 60,82 54,90
    C52,93 51,95 50,97
    C49,95 48,93 46,90
    C40,82 38,70 42,58
    C34,62 30,74 34,86
    C24,78 16,66 14,52
    C12,34 18,16 28,6
    C25,12 24,22 32,30
    C38,20 45,14 50,6Z
  " fill="#E53935"/>

  <!-- White wisp left -->
  <path d="
    M34,22
    C30,32 28,44 32,56
    C27,48 25,36 27,24
    C29,14 35,12 34,22Z
  " fill="white"/>

  <!-- White wisp center-left -->
  <path d="
    M46,16
    C44,26 43,36 45,46
    C42,38 41,27 43,17Z
  " fill="white"/>

  <!-- White teardrop right -->
  <path d="
    M66,16 C69,11 74,12 72,19 C71,24 66,25 66,16Z
  " fill="white"/>

  <!-- Yellow inner flame -->
  <path d="
    M50,97
    C42,91 36,80 37,68
    C40,75 44,78 50,76
    C56,78 60,75 63,68
    C64,80 58,91 50,97Z
  " fill="#FFC107"/>

  <!-- Yellow bright core -->
  <path d="
    M50,87
    C46,81 44,73 46,65
    C48,70 49,73 50,74
    C51,73 52,70 54,65
    C56,73 54,81 50,87Z
  " fill="#FFF176"/>
</svg>